<?xml version="1.0" encoding="iso-8859-1"?>
<!-- Generator: Adobe Illustrator 18.0.0, SVG Export Plug-In . SVG Version: 6.00 Build 0)  -->
<!DOCTYPE svg PUBLIC "-//W3C//DTD SVG 1.1//EN" "http://www.w3.org/Graphics/SVG/1.1/DTD/svg11.dtd">
<svg version="1.1" id="Capa_1" xmlns="http://www.w3.org/2000/svg" xmlns:xlink="http://www.w3.org/1999/xlink" x="0px" y="0px"
	 viewBox="0 0 212.954 212.954" style="enable-background:new 0 0 212.954 212.954;" xml:space="preserve">
<g>
	<path d="M191.449,173.176L167.006,68.889c-0.028-0.12-0.066-0.234-0.101-0.35l-0.399-14.17c-0.092-3.247-2.75-5.831-5.998-5.831
		h-19.22l-3.214-14.695C134.89,19.28,122.484,9.07,108.331,7.989C102.553,3.016,95.044,0,86.84,0c-18.196,0-33,14.804-33,33v15.538
		H31.173c-3.248,0-5.906,2.584-5.998,5.831l-3.827,135.907c-0.045,1.62,0.566,3.189,1.696,4.352c1.13,1.162,2.682,1.817,4.302,1.817
		h16.78l2.516,11.765c0.339,1.585,1.305,2.965,2.677,3.827c0.964,0.605,2.071,0.918,3.19,0.918c0.475,0,0.951-0.056,1.42-0.17
		l67.103-16.339h43.303c1.62,0,3.172-0.656,4.302-1.817c1.13-1.162,1.741-2.731,1.696-4.352l-0.163-5.796l16.858-4.105
		C190.226,179.595,192.201,176.382,191.449,173.176z M126.351,36.406l2.653,12.132h-9.165V33c0-3.017-0.415-5.937-1.177-8.715
		C122.439,27.197,125.255,31.394,126.351,36.406z M101.35,20.377c0.663-0.145,1.325-0.25,1.985-0.33
		c2.811,3.573,4.504,8.065,4.504,12.953v15.538H86.012l-0.69-3.159C82.848,34.067,90.038,22.851,101.35,20.377z M65.84,33
		c0-11.58,9.421-21,21-21c0.917,0,1.814,0.079,2.7,0.194c-12.228,6.953-19.101,21.301-15.941,35.749l0.13,0.595H65.84V33z
		 M57.085,199.665l-0.688-3.22h13.913L57.085,199.665z M33.517,184.444l3.489-123.907h117.669l3.488,123.907H33.517z
		 M169.824,172.213l-1.239-44.002l9.823,41.911L169.824,172.213z"/>
</g>
<g>
</g>
<g>
</g>
<g>
</g>
<g>
</g>
<g>
</g>
<g>
</g>
<g>
</g>
<g>
</g>
<g>
</g>
<g>
</g>
<g>
</g>
<g>
</g>
<g>
</g>
<g>
</g>
<g>
</g>
</svg>
